<?xml version="1.0" encoding="UTF-8" standalone="no"?>
<svg
   xmlns:dc="http://purl.org/dc/elements/1.1/"
   xmlns:cc="http://creativecommons.org/ns#"
   xmlns:rdf="http://www.w3.org/1999/02/22-rdf-syntax-ns#"
   xmlns:svg="http://www.w3.org/2000/svg"
   xmlns="http://www.w3.org/2000/svg"
   xmlns:sodipodi="http://sodipodi.sourceforge.net/DTD/sodipodi-0.dtd"
   xmlns:inkscape="http://www.inkscape.org/namespaces/inkscape"
   version="1.1"
   id="svg2"
   xml:space="preserve"
   width="1658.6667"
   height="1522.6667"
   viewBox="0 0 1658.6667 1522.6667"
   sodipodi:docname="captain-american-4551118.ai"><metadata
     id="metadata8"><rdf:RDF><cc:Work
         rdf:about=""><dc:format>image/svg+xml</dc:format><dc:type
           rdf:resource="http://purl.org/dc/dcmitype/StillImage" /></cc:Work></rdf:RDF></metadata><defs
     id="defs6"><clipPath
       clipPathUnits="userSpaceOnUse"
       id="clipPath18"><path
         d="M 0,1142 H 1244 V 0 H 0 Z"
         id="path16" /></clipPath><radialGradient
       fx="0"
       fy="0"
       cx="0"
       cy="0"
       r="1"
       gradientUnits="userSpaceOnUse"
       gradientTransform="matrix(-450.52823,-443.70206,-443.70206,450.52823,879.99774,760.53046)"
       spreadMethod="pad"
       id="radialGradient44"><stop
         style="stop-opacity:1;stop-color:#961010"
         offset="0"
         id="stop40" /><stop
         style="stop-opacity:1;stop-color:#d21a21"
         offset="1"
         id="stop42" /></radialGradient><radialGradient
       fx="0"
       fy="0"
       cx="0"
       cy="0"
       r="1"
       gradientUnits="userSpaceOnUse"
       gradientTransform="matrix(-367.33408,-405.73138,-405.73138,367.33408,750.30023,657.28442)"
       spreadMethod="pad"
       id="radialGradient64"><stop
         style="stop-opacity:1;stop-color:#006ea3"
         offset="0"
         id="stop60" /><stop
         style="stop-opacity:1;stop-color:#00c2c9"
         offset="1"
         id="stop62" /></radialGradient><clipPath
       clipPathUnits="userSpaceOnUse"
       id="clipPath74"><path
         d="M 0,1142 H 1244 V 0 H 0 Z"
         id="path72" /></clipPath><clipPath
       clipPathUnits="userSpaceOnUse"
       id="clipPath86"><path
         d="M 113,1077 H 1163 V 27 H 113 Z"
         id="path84" /></clipPath><linearGradient
       x1="0"
       y1="0"
       x2="1"
       y2="0"
       gradientUnits="userSpaceOnUse"
       gradientTransform="matrix(-812.31604,-781.59821,-781.59821,812.31604,922.06549,825.32355)"
       spreadMethod="pad"
       id="linearGradient112"><stop
         style="stop-opacity:1;stop-color:#c1c3c5"
         offset="0"
         id="stop92" /><stop
         style="stop-opacity:1;stop-color:#c1c3c5"
         offset="0.177237"
         id="stop94" /><stop
         style="stop-opacity:1;stop-color:#616264"
         offset="0.26064244"
         id="stop96" /><stop
         style="stop-opacity:1;stop-color:#616264"
         offset="0.310056"
         id="stop98" /><stop
         style="stop-opacity:1;stop-color:#616264"
         offset="0.44052301"
         id="stop100" /><stop
         style="stop-opacity:1;stop-color:#f2f2f2"
         offset="0.473326"
         id="stop102" /><stop
         style="stop-opacity:1;stop-color:#8c8e90"
         offset="0.57340875"
         id="stop104" /><stop
         style="stop-opacity:1;stop-color:#8c8e90"
         offset="0.662011"
         id="stop106" /><stop
         style="stop-opacity:1;stop-color:#8c8e90"
         offset="0.87302668"
         id="stop108" /><stop
         style="stop-opacity:1;stop-color:#f2f2f3"
         offset="1"
         id="stop110" /></linearGradient></defs><sodipodi:namedview
     pagecolor="#ffffff"
     bordercolor="#666666"
     borderopacity="1"
     objecttolerance="10"
     gridtolerance="10"
     guidetolerance="10"
     inkscape:pageopacity="0"
     inkscape:pageshadow="2"
     inkscape:window-width="640"
     inkscape:window-height="480"
     id="namedview4" /><g
     id="g10"
     inkscape:groupmode="layer"
     inkscape:label="captain-american-4551118"
     transform="matrix(1.3333333,0,0,-1.3333333,0,1522.6667)"><g
       id="g12"><g
         id="g14"
         clip-path="url(#clipPath18)"><g
           id="g20"
           transform="translate(1163,552)"><path
             d="m 0,0 c 0,-289.949 -235.051,-525 -525,-525 -289.95,0 -525,235.051 -525,525 0,289.95 235.05,525 525,525 C -235.051,525 0,289.95 0,0"
             style="fill:#a41117;fill-opacity:1;fill-rule:nonzero;stroke:none"
             id="path22" /></g><g
           id="g24"
           transform="translate(1074.1172,552)"><path
             d="m 0,0 c 0,-240.861 -195.256,-436.117 -436.117,-436.117 -240.861,0 -436.117,195.256 -436.117,436.117 0,240.861 195.256,436.117 436.117,436.117 C -195.256,436.117 0,240.861 0,0"
             style="fill:#e6e6e6;fill-opacity:1;fill-rule:nonzero;stroke:none"
             id="path26" /></g></g></g><g
       id="g28"><g
         id="g30"><g
           id="g36"><g
             id="g38"><path
               d="M 283.655,552 C 283.655,356.301 442.301,197.654 638,197.654 v 0 c 195.699,0 354.345,158.647 354.345,354.346 v 0 c 0,195.699 -158.646,354.345 -354.345,354.345 v 0 C 442.301,906.345 283.655,747.699 283.655,552"
               style="fill:url(#radialGradient44);stroke:none"
               id="path46" /></g></g></g></g><g
       id="g48"><g
         id="g50"><g
           id="g56"><g
             id="g58"><path
               d="m 354.761,552 c 0,-156.428 126.81,-283.239 283.239,-283.239 v 0 c 156.429,0 283.239,126.811 283.239,283.239 v 0 c 0,156.429 -126.81,283.24 -283.239,283.24 v 0 C 481.571,835.24 354.761,708.429 354.761,552"
               style="fill:url(#radialGradient64);stroke:none"
               id="path66" /></g></g></g></g><g
       id="g68"><g
         id="g70"
         clip-path="url(#clipPath74)"><g
           id="g76"
           transform="translate(638,828.125)"><path
             d="M 0,0 61.994,-190.798 H 262.61 L 100.309,-308.717 162.302,-499.515 0,-381.596 l -162.302,-117.919 61.994,190.798 -162.302,117.919 h 200.616 z"
             style="fill:#ffffff;fill-opacity:1;fill-rule:nonzero;stroke:none"
             id="path78" /></g><g
           id="g80"><g
             id="g82" /><g
             id="g126"><g
               clip-path="url(#clipPath86)"
               opacity="0.130005"
               id="g124"><g
                 id="g122"><g
                   id="g120"><g
                     id="g118"><g
                       id="g116"><path
                         d="M 1163,552 C 1163,262.051 927.949,27 638,27 348.05,27 113,262.051 113,552 c 0,289.95 235.05,525 525,525 289.949,0 525,-235.05 525,-525"
                         style="fill:url(#linearGradient112);stroke:none"
                         id="path114" /></g></g></g></g></g></g></g></g></g></g></svg>
